# xmcd
#
# Track frame offsets:
#  150
#  20168
#  38116
#  56084
#  74773
#  94071
#  110329
#  133154
#  149152
#  169415
#  186208
#  206720
#  228755
#  248441
#  273400
#  287640
#
# Disc length: 4116 seconds
#
# Revision: 0
# Processed by: cddbd v1.4PL0 Copyright (c) Steve Scherf et al.
# Submitted via: AltoMP3_Maker 3.0
#
DISCID=fb101210
DTITLE=萧亚轩 - 明天ELVA
DYEAR=1900
DGENRE=
TTITLE0=明天
TTITLE1=秘密
TTITLE2=LET  IT  GO
TTITLE3=天使暂时离开
TTITLE4=长话短说
TTITLE5=我爱你那么多
TTITLE6=下一次恋爱
TTITLE7=爱情美
TTITLE8=答应我
TTITLE9=爱第三次
TTITLE10=简单的爱
TTITLE11=忘记他
TTITLE12=最熟悉的陌生人
TTITLE13=蔷薇
TTITLE14=一个人的精彩
TTITLE15=不要后悔
EXTD=
EXTT0=
EXTT1=
EXTT2=
EXTT3=
EXTT4=
EXTT5=
EXTT6=
EXTT7=
EXTT8=
EXTT9=
EXTT10=
EXTT11=
EXTT12=
EXTT13=
EXTT14=
EXTT15=
PLAYORDER=
